<?xml version="1.0" encoding="utf-8"?>
<!-- Generator: Adobe Illustrator 28.3.0, SVG Export Plug-In . SVG Version: 6.00 Build 0)  -->
<svg version="1.1" id="レイヤー_1" xmlns="http://www.w3.org/2000/svg" xmlns:xlink="http://www.w3.org/1999/xlink" x="0px"
	 y="0px" viewBox="0 0 425.2 198.43" style="enable-background:new 0 0 425.2 198.43;" xml:space="preserve">
<style type="text/css">
	.st0{fill:#0E3193;}
	.st1{fill:#34A02C;}
</style>
<g>
	<g>
		<polygon points="214.55,40.26 219.58,40.26 219.58,54.77 232.57,40.26 238.75,40.26 226.94,53.04 239.33,72.2 233.53,72.2 
			223.45,56.71 219.58,60.97 219.58,72.2 214.55,72.2 214.55,40.26 		"/>
		<path d="M239.14,48.77h5.03l5.43,18l5.41-18h4.84l-9.11,27.3c-0.77,2.33-1.53,3.87-2.51,4.64c-0.96,0.78-2.33,1.15-4.25,1.15
			c-0.39,0-0.79,0-1.17-0.19c-0.39,0-0.56,0-0.96-0.19v-4.26c0.39,0,0.57,0.18,0.96,0.18h0.78c0.77,0,1.54-0.18,1.93-0.37
			c0.59-0.38,0.78-0.96,1.17-1.75l0.57-1.92L239.14,48.77L239.14,48.77z"/>
		<path d="M273.6,52.27c-1.94,0-3.48,0.77-4.46,2.12c-0.96,1.37-1.55,3.48-1.55,6.18c0,2.52,0.58,4.65,1.55,6.02
			c0.98,1.35,2.52,2.12,4.46,2.12c1.92,0,3.28-0.77,4.45-2.12c0.97-1.36,1.35-3.5,1.35-6.02c0-2.7-0.38-4.81-1.35-6.18
			C276.88,53.04,275.52,52.27,273.6,52.27L273.6,52.27z M273.6,48.02c3.28,0,5.8,1.15,7.72,3.28c1.96,2.32,2.92,5.42,2.92,9.27
			c0,3.87-0.96,6.78-2.92,9.13c-1.92,2.11-4.44,3.28-7.72,3.28c-3.31,0-6.01-1.16-7.95-3.28c-1.74-2.35-2.71-5.25-2.71-9.13
			c0-4.05,0.97-6.95,2.71-9.27C267.59,49.17,270.12,48.02,273.6,48.02L273.6,48.02z"/>
		<path d="M290.04,42.4h4.65v6.37h3.67v3.68h-3.67V66.2c0,0.97,0.19,1.55,0.38,1.74c0.19,0.18,0.78,0.4,1.36,0.4h0.58h0.38h0.97
			v3.86h-0.58c-1.16,0.19-2.13,0.19-2.71,0.19c-1.74,0-3.09-0.38-3.87-1.17c-0.78-0.76-1.16-2.3-1.16-4.44V52.45h-3.1v-3.68h3.1
			V42.4L290.04,42.4z"/>
		<path d="M312.49,52.27c-1.93,0-3.48,0.77-4.45,2.12c-0.96,1.37-1.55,3.48-1.55,6.18c0,2.52,0.59,4.65,1.55,6.02
			c0.97,1.35,2.52,2.12,4.45,2.12c1.94,0,3.29-0.77,4.46-2.12c0.97-1.36,1.55-3.5,1.55-6.02c0-2.7-0.58-4.81-1.55-6.18
			C315.78,53.04,314.43,52.27,312.49,52.27L312.49,52.27z M312.49,48.02c3.29,0,5.8,1.15,7.74,3.28c1.93,2.32,2.91,5.42,2.91,9.27
			c0,3.87-0.98,6.78-2.91,9.13c-1.73,2.11-4.44,3.28-7.74,3.28c-3.3,0-6-1.16-7.93-3.28c-1.74-2.35-2.71-5.25-2.71-9.13
			c0-4.05,0.97-6.95,2.71-9.27C306.49,49.17,309.19,48.02,312.49,48.02L312.49,48.02z"/>
		<path d="M235.65,93.88h-4.45c-0.19-1.75-0.77-3.1-1.93-4.27c-1.16-0.97-2.72-1.56-4.65-1.56c-1.74,0-2.9,0.59-4.06,1.36
			c-0.98,0.79-1.57,1.75-1.57,2.9c0,1.17,0.59,2.33,1.37,3.11c0.96,0.77,2.89,1.56,5.81,2.31c4.26,1.17,7.16,2.33,8.51,3.88
			c1.17,1.36,1.75,3.3,1.75,5.81c0,2.91-0.96,5.41-2.9,7.17c-2.13,1.73-4.84,2.7-8.32,2.7c-3.68,0-6.6-0.97-8.71-2.92
			c-1.94-1.73-3.09-4.64-3.3-8.11h4.85c0.19,2.12,0.95,3.66,2.13,4.83c1.34,1.16,3.08,1.74,5.41,1.74c1.55,0,3.1-0.58,4.07-1.36
			c1.16-0.97,1.74-1.94,1.74-3.29c0-0.59-0.22-1.15-0.53-1.79c-0.26-0.55-0.62-1.08-1.15-1.52c-0.86-0.7-2.57-1.52-5.28-2.3
			c-0.6-0.2-6.98-2.52-8.33-3.88c-1.35-1.55-1.93-3.49-1.93-6c0-2.51,0.96-4.85,2.9-6.38c2.13-1.75,4.65-2.52,8.13-2.52
			c3.09,0,5.81,0.96,7.74,2.69C234.87,88.26,235.65,90.79,235.65,93.88L235.65,93.88z"/>
		<path d="M251.72,96.59c-1.93,0-3.49,0.77-4.45,2.12c-1.16,1.36-1.56,3.48-1.56,6c0,2.72,0.4,4.83,1.56,6.2
			c0.96,1.36,2.52,2.14,4.45,2.14c1.74,0,3.29-0.78,4.26-2.14c1.16-1.36,1.55-3.48,1.55-6.2c0-2.52-0.39-4.64-1.55-6
			C255.01,97.36,253.46,96.59,251.72,96.59L251.72,96.59z M251.53,92.31c3.48,0,6,1.17,7.94,3.3c1.93,2.31,2.9,5.23,2.9,9.09
			c0,4.06-0.97,6.98-2.9,9.28c-1.93,2.15-4.45,3.31-7.75,3.31c-3.49,0-6.01-1.16-7.94-3.31c-1.93-2.3-2.7-5.22-2.7-9.28
			c0-3.86,0.78-6.78,2.7-9.09C245.71,93.48,248.23,92.31,251.53,92.31L251.53,92.31z"/>
		<path d="M276.88,84.4v4.25h-0.96l-0.58-0.19c-0.97,0-1.54,0.19-1.74,0.57c-0.4,0.38-0.58,1.17-0.58,2.33v1.75h3.86v3.67h-3.86
			v19.74h-4.46V96.77h-3.29v-3.67h3.29V90.2c0-1.94,0.4-3.49,1.36-4.45c0.97-0.96,2.32-1.54,4.26-1.54c0.39,0,1.35,0.19,2.52,0.19
			H276.88L276.88,84.4z"/>
		<path d="M281.32,86.71h4.46v6.39h3.68v3.67h-3.68v13.74c0,0.97,0.2,1.37,0.41,1.75c0.37,0.19,0.76,0.38,1.54,0.38h0.38h0.39h0.97
			v3.87h-0.4c-1.35,0.2-2.31,0.2-2.88,0.2c-1.76,0-3.1-0.39-3.68-1.17c-0.78-0.78-1.18-2.33-1.18-4.45V96.77h-3.08v-3.67h3.08V86.71
			L281.32,86.71z"/>
		<polygon points="291.79,93.11 296.43,93.11 300.49,110.12 304.17,93.11 309.19,93.11 313.06,110.12 317.13,93.11 321.78,93.11 
			315.41,116.52 310.75,116.52 306.7,99.09 302.62,116.52 297.98,116.52 291.79,93.11 		"/>
		<path d="M338.61,104.71c-0.96,0.58-2.51,0.97-4.64,1.36c-0.77,0.21-1.35,0.21-1.55,0.38c-1.16,0.21-1.93,0.6-2.51,1.17
			c-0.39,0.59-0.78,1.36-0.78,2.32c0,0.98,0.39,1.76,0.98,2.34c0.58,0.58,1.54,0.96,2.51,0.96c1.73,0,3.29-0.58,4.26-1.54
			c1.16-0.99,1.73-2.33,1.73-4.08V104.71L338.61,104.71z M338.82,113.43c-0.77,1.16-1.94,2.12-3.11,2.71
			c-1.35,0.76-2.7,1.16-4.06,1.16c-2.12,0-3.87-0.58-5.23-1.94c-1.16-1.16-1.74-2.9-1.74-5.02c0-2.33,0.58-4.06,1.93-5.42
			c1.36-1.17,3.68-1.94,7.16-2.52h0.58c2.92-0.38,4.26-1.36,4.26-2.71c0-1.15-0.38-1.94-0.96-2.52c-0.77-0.39-1.94-0.77-3.49-0.77
			c-1.35,0-2.32,0.38-3.1,0.97c-0.77,0.57-1.15,1.54-1.15,2.71v0.2h-4.45v-0.4c0-2.32,0.77-4.06,2.51-5.41
			c1.55-1.35,3.67-2.15,6.38-2.15c2.92,0,5.04,0.59,6.59,1.76c1.35,1.15,2.13,2.9,2.13,5.23v11.6c0,0.78,0.19,1.36,0.38,1.74
			c0.19,0.19,0.58,0.4,0.98,0.4h0.37c0,0,0.19,0,0.59,0v3.47c-0.39,0.2-0.78,0.2-1.16,0.38c-0.58,0-0.78,0-1.16,0
			c-1.55,0-2.53-0.18-3.11-0.76C339.2,115.55,338.82,114.59,338.82,113.43L338.82,113.43z"/>
		<path d="M361.07,92.71v5.02h-1.16c-1.92,0-3.28,0.59-4.26,1.57c-0.97,0.96-1.35,2.5-1.35,4.44v12.77h-4.64V93.11h4.44v4.05
			c0.58-1.55,1.36-2.7,2.33-3.48c0.96-0.77,2.32-1.15,3.67-1.15C360.5,92.53,360.69,92.71,361.07,92.71L361.07,92.71z"/>
		<path d="M384.3,106.07h-15.09c0,2.33,0.58,3.86,1.54,5.04c0.97,1.16,2.13,1.74,3.88,1.74c1.36,0,2.33-0.19,3.11-0.96
			c0.96-0.6,1.55-1.55,1.73-2.72h4.64c-0.38,2.31-1.55,4.26-3.29,5.81c-1.73,1.54-3.86,2.32-6.38,2.32c-3.09,0-5.62-1.16-7.37-3.48
			c-1.73-2.13-2.7-5.23-2.7-9.11c0-3.86,0.97-6.78,2.7-9.09c1.75-2.13,4.28-3.3,7.56-3.3c2.9,0,5.42,1.17,7.16,3.3
			c1.75,2.12,2.71,5.04,2.71,8.71C384.49,104.71,384.3,105.29,384.3,106.07L384.3,106.07z M379.66,102.59c0-1.94-0.58-3.5-1.36-4.45
			c-0.97-0.98-2.31-1.55-3.86-1.55c-1.56,0-2.72,0.58-3.69,1.55c-0.96,0.95-1.35,2.51-1.54,4.45H379.66L379.66,102.59z"/>
		<path d="M219.4,133.36v9.87h7.16c2.13,0,3.49-0.38,4.45-1.16c0.77-0.78,1.35-2.13,1.35-3.89c0-1.73-0.38-2.89-1.35-3.66
			c-0.97-0.77-2.32-1.16-4.26-1.16H219.4L219.4,133.36z M214.55,128.91h14.32c2.71,0,4.65,0.78,6.2,2.51
			c1.36,1.55,2.13,3.67,2.13,6.38c0,1.76-0.4,3.3-1.17,4.66c-0.77,1.36-1.54,2.13-2.9,2.71c1.16,0.38,1.94,1.15,2.34,2.12
			c0.57,0.78,0.76,2.32,0.96,4.26l0.18,4.64c0.19,1.94,0.59,3.29,1.37,3.67v0.98h-5.42c-0.2-0.59-0.4-0.98-0.4-1.55
			c-0.19-0.58-0.19-1.56-0.38-2.71l-0.2-3.87c0-1.93-0.38-3.29-1.15-4.06c-0.58-0.58-1.74-0.98-3.49-0.98h-0.96h-6.39v13.18h-5.03
			V128.91L214.55,128.91z"/>
		<path d="M262.17,150.39h-15.1c0,2.32,0.58,3.87,1.54,5.02c0.99,1.17,2.34,1.76,4.07,1.76c1.15,0,2.15-0.2,3.09-0.98
			c0.78-0.59,1.36-1.54,1.55-2.7h4.65c-0.39,2.32-1.55,4.24-3.3,5.81c-1.74,1.55-3.85,2.33-6.38,2.33c-3.09,0-5.6-1.16-7.36-3.49
			c-1.75-2.13-2.7-5.24-2.7-9.09c0-3.88,0.95-6.98,2.7-9.1c1.93-2.14,4.26-3.29,7.55-3.29c3.1,0,5.42,1.14,7.17,3.29
			c1.73,2.13,2.7,5.03,2.7,8.71C262.37,149.05,262.37,149.61,262.17,150.39L262.17,150.39z M257.53,146.91
			c0-1.94-0.59-3.49-1.35-4.45c-0.98-0.97-2.14-1.55-3.88-1.55c-1.56,0-2.7,0.38-3.69,1.55c-0.96,0.96-1.34,2.51-1.54,4.45H257.53
			L257.53,146.91z"/>
		<path d="M284.04,144.2h-4.45c0-1.17-0.58-1.93-1.36-2.71c-0.77-0.58-1.75-0.78-3.29-0.78c-1.15,0-1.93,0.2-2.71,0.59
			c-0.58,0.6-0.97,1.16-0.97,1.93c0,0.78,0.39,1.36,0.77,1.74c0.59,0.39,1.56,0.78,2.91,1.16l2.71,0.78
			c2.71,0.56,4.65,1.36,5.62,2.52c0.96,0.97,1.34,2.33,1.34,4.26c0,2.51-0.77,4.45-2.51,5.8c-1.55,1.36-3.87,2.13-6.77,2.13
			c-2.91,0-5.22-0.78-6.78-2.33c-1.74-1.36-2.51-3.48-2.51-6h4.45c0.19,1.36,0.58,2.31,1.54,3.08c0.77,0.8,2.13,0.98,3.68,0.98
			c1.35,0,2.32-0.18,3.1-0.77c0.77-0.57,1.15-1.35,1.15-2.32c0-0.58-0.19-1.17-0.58-1.55c-0.57-0.39-1.35-0.77-2.7-1.16l-3.3-0.98
			c-2.51-0.58-4.26-1.34-5.22-2.5c-0.97-0.97-1.56-2.33-1.56-4.06c0-2.34,0.78-4.07,2.34-5.42c1.54-1.17,3.68-1.93,6.19-1.93
			c2.7,0,4.84,0.76,6.59,2.11C283.28,140.13,284.04,141.89,284.04,144.2L284.04,144.2z"/>
		<path d="M308.82,150.39h-15.1c0,2.32,0.39,3.87,1.36,5.02c0.97,1.17,2.32,1.76,4.06,1.76c1.35,0,2.33-0.2,3.1-0.98
			c0.97-0.59,1.54-1.54,1.74-2.7h4.65c-0.38,2.32-1.54,4.24-3.28,5.81c-1.75,1.55-3.88,2.33-6.39,2.33c-3.1,0-5.61-1.16-7.35-3.49
			c-1.75-2.13-2.71-5.24-2.71-9.09c0-3.88,0.96-6.98,2.71-9.1c1.74-2.14,4.26-3.29,7.35-3.29c3.1,0,5.61,1.14,7.35,3.29
			c1.75,2.13,2.53,5.03,2.53,8.71C308.82,149.05,308.82,149.61,308.82,150.39L308.82,150.39z M303.97,146.91
			c0-1.94-0.38-3.49-1.35-4.45c-0.77-0.97-2.14-1.55-3.67-1.55c-1.55,0-2.91,0.38-3.68,1.55c-0.97,0.96-1.55,2.51-1.55,4.45H303.97
			L303.97,146.91z"/>
		<path d="M326.81,149.05c-0.96,0.56-2.48,0.76-4.61,1.16c-0.77,0.18-1.4,0.28-1.77,0.37c-0.96,0.25-1.75,0.78-2.34,1.37
			c-0.57,0.58-0.77,1.35-0.77,2.31c0,0.97,0.39,1.75,0.97,2.32c0.59,0.59,1.37,0.98,2.52,0.98c1.74,0,3.1-0.59,4.26-1.56
			c1.15-1.16,1.73-2.32,1.73-4.06V149.05L326.81,149.05z M322.27,146.71c2.91-0.39,4.55-1.35,4.55-2.7c0-1.16-0.38-1.94-1.16-2.52
			c-0.57-0.38-1.74-0.78-3.29-0.78c-1.35,0-2.52,0.39-3.29,0.96c-0.58,0.6-0.98,1.56-0.98,2.71v0.2h-4.44v-0.38
			c0-2.31,0.77-4.07,2.31-5.43c1.74-1.36,3.87-2.11,6.57-2.11c2.91,0,5.04,0.58,6.59,1.73c1.35,1.17,2.13,2.9,2.13,5.23v11.61
			c0,0.78,0.19,1.35,0.39,1.74c0.2,0.2,0.38,0.38,0.97,0.38h0.38c0,0,0.2,0,0.59-0.18v3.67c-0.59,0.19-0.97,0.19-1.35,0.19
			c-0.39,0.21-0.78,0.21-1.17,0.21c-1.36,0-2.32-0.4-3.09-0.99c-0.58-0.58-0.97-1.35-0.97-2.52l0,0c-0.96,1.18-1.93,2.13-3.28,2.73
			c-1.17,0.79-2.52,1.16-3.87,1.16c-2.32,0-3.87-0.78-5.23-1.95c-1.16-1.16-1.74-2.9-1.74-5.02c0-2.34,0.58-4.27,1.93-5.43
			C316.16,148.07,318.78,147.29,322.27,146.71z"/>
		<path d="M349.27,136.84v5.23h-1.35c-1.74,0-3.11,0.39-4.07,1.55c-0.97,0.97-1.35,2.52-1.35,4.46v12.77h-4.65v-23.43h4.27v4.08
			c0.77-1.55,1.54-2.72,2.5-3.49c0.96-0.76,2.14-1.16,3.48-1.16h0.2C348.68,136.84,348.87,136.84,349.27,136.84L349.27,136.84z"/>
		<path d="M371.92,145.36h-4.46c-0.19-1.34-0.58-2.51-1.55-3.29c-0.78-0.78-1.93-1.16-3.28-1.16c-1.75,0-3.09,0.76-4.07,2.12
			c-0.78,1.36-1.35,3.29-1.35,6.02c0,2.71,0.58,4.64,1.35,5.99c0.98,1.34,2.32,2.14,4.07,2.14c1.36,0,2.51-0.4,3.28-1.36
			c0.97-0.78,1.36-1.94,1.55-3.49h4.46c-0.2,2.9-1.17,5.03-2.9,6.78c-1.75,1.55-4.07,2.52-6.97,2.52c-2.9,0-5.23-1.16-6.97-3.49
			c-1.75-2.13-2.52-5.24-2.52-8.91c0-3.87,0.78-6.96,2.72-9.29c1.74-2.14,4.26-3.29,7.35-3.29c2.71,0,4.83,0.76,6.58,2.31
			C370.94,140.52,371.72,142.65,371.92,145.36L371.92,145.36z"/>
		<path d="M376.95,128.91h4.64v11.62c0.59-1.17,1.55-2.13,2.71-2.72c1.16-0.56,2.32-0.96,3.88-0.96c2.31,0,4.26,0.57,5.42,1.93
			c1.36,1.17,1.94,3.12,1.94,5.43c0,0,0,0.38,0,0.77c0,0.58,0,0.97,0,1.35v14.53h-4.46v-14.53c0-1.73-0.38-3.09-1.16-3.86
			c-0.58-0.97-1.54-1.36-3.11-1.36c-1.53,0-2.9,0.57-3.86,1.55c-0.97,1.16-1.36,2.51-1.36,4.26v13.94h-4.64V128.91L376.95,128.91z"
			/>
	</g>
	<g>
		<path class="st0" d="M107.83,117.98c-10.64-8.34-10.64-29.2,0-37.54l62.7-49.16c10.64-8.34,23.94,2.09,23.94,18.77v98.32
			c0,16.69-13.3,27.11-23.94,18.77L107.83,117.98z"/>
		<path class="st1" d="M45.39,28.35h25c8.68,0,15.72,7.04,15.72,15.72v110.28c0,8.68-7.04,15.72-15.72,15.72h-25
			c-8.68,0-15.72-7.04-15.72-15.72V44.07C29.66,35.39,36.7,28.35,45.39,28.35z"/>
	</g>
</g>
</svg>
