<?xml version="1.0" encoding="UTF-8" standalone="no"?>
<!DOCTYPE svg PUBLIC "-//W3C//DTD SVG 1.1//EN" "http://www.w3.org/Graphics/SVG/1.1/DTD/svg11.dtd">
<!-- Microsoft Visio、SVG Export により生成 図面3.svg ページ - 1 -->
<svg xmlns="http://www.w3.org/2000/svg" xmlns:xlink="http://www.w3.org/1999/xlink" xmlns:ev="http://www.w3.org/2001/xml-events"
		xmlns:v="http://schemas.microsoft.com/visio/2003/SVGExtensions/" width="8.28504in" height="3.05677in"
		viewBox="0 0 596.523 220.088" xml:space="preserve" color-interpolation-filters="sRGB" class="st5">
	<v:documentProperties v:langID="1041" v:metric="true" v:viewMarkup="false"/>

	<style type="text/css">
	<![CDATA[
		.st1 {fill:#c385b6}
		.st2 {stroke:none;stroke-linecap:round;stroke-linejoin:round;stroke-width:0.75}
		.st3 {fill:#666465;stroke:none;stroke-linecap:round;stroke-linejoin:round;stroke-width:0.75}
		.st4 {fill:#c385b6;stroke:none;stroke-linecap:round;stroke-linejoin:round;stroke-width:0.75}
		.st5 {fill:none;fill-rule:evenodd;font-size:12px;overflow:visible;stroke-linecap:square;stroke-miterlimit:3}
	]]>
	</style>

	<g v:mID="0" v:index="1" v:groupContext="foregroundPage">
		<title>ページ - 1</title>
		<v:pageProperties v:drawingScale="0.0393701" v:pageScale="0.0393701" v:drawingUnits="24" v:shadowOffsetX="8.50394"
				v:shadowOffsetY="-8.50394"/>
		<g id="shape643-1" v:mID="643" v:groupContext="shape" transform="translate(-2.8777E-13,-71.8659)">
			<title>シート.643</title>
			<path d="M15.91 82.18 A5.58964 5.5819 0 1 1 4.73 82.18 A5.58964 5.5819 0 1 1 15.91 82.18 ZM88.46 98.65 A36.1729 16.6292
						 0 0 1 99.18 96.27 A36.1729 16.6292 0 0 1 105.47 95.69 L140.38 95.69 L140.38 108.47 L104.16 108.47 A36.1729
						 16.4894 -180 0 0 102 108.73 A34.9938 24.8447 0 0 1 103.78 111.58 L140.38 111.58 L140.38 116.38 L106.1 116.38
						 A27.9083 34.4561 0 0 1 108.09 125.03 A27.9083 34.4561 0 0 1 107.98 135.92 A27.9083 34.4561 0 0 1 105.08
						 146.34 A31.7811 34.4561 0 0 1 90.7 160.35 A31.7811 34.4561 0 0 1 83.79 162.74 A31.7811 34.4561 0 0 1 81.28
						 163.17 A29.3855 24.4746 -180 0 0 92.52 172.39 A29.3855 24.4746 -180 0 0 103.65 175.31 A29.3855 24.4746 -180
						 0 0 104.92 175.4 L108.44 175.4 L108.44 188.14 A46.4339 42.3215 0 0 1 103.65 187.98 A46.4339 42.3215 0 0
						 1 87.27 183.83 A34.3922 38.9278 0 0 1 75.48 176.29 A34.3922 38.9278 0 0 1 68.34 166.62 A31.6214 40.0857
						 0 0 1 64.04 151.22 A31.6214 40.0857 0 0 1 63.9 149.61 A31.6214 40.0857 0 0 1 63.76 145.23 A31.6214 40.0857
						 0 0 1 64.08 140.12 A31.6214 40.0857 0 0 1 65.78 131.7 A31.6214 40.0857 0 0 1 66.42 129.71 A35.0151 42.2417
						 0 0 1 67.22 127.75 A35.0151 42.2417 0 0 1 74.26 116.61 A35.0151 42.2417 0 0 1 74.48 116.36 L70.25 116.36
						 A20.7615 13.0455 -180 0 0 69.35 117.36 A20.7615 13.0455 -180 0 0 69.09 117.69 L68.99 117.81 A22.0387 31.6743
						 -180 0 0 66.04 122.15 A22.0387 31.6743 -180 0 0 63.46 127.95 A22.0387 31.6743 -180 0 0 63.04 129.24 A8.04835
						 23.2751 -180 0 0 62.16 132.24 A8.04835 23.2751 -180 0 0 61.92 133.27 A8.04835 23.2751 -180 0 0 60.74 142.77
						 A8.04835 23.2751 -180 0 0 60.68 146.3 A33.8456 40.2977 -180 0 0 60.67 147.46 A33.8456 40.2977 -180 0 0 60.68
						 148.58 A33.8456 40.2977 -180 0 0 60.87 151.79 A33.8456 40.2977 -180 0 0 61.15 154.18 A33.8456 40.2977 -180
						 0 0 61.19 154.45 A33.8456 40.2977 -180 0 0 61.39 155.71 A33.8456 40.2977 -180 0 0 61.6 156.79 A33.8456 40.2977
						 -180 0 0 61.82 157.82 A33.8456 40.2977 -180 0 0 62.17 159.28 A33.8456 40.2977 -180 0 0 62.64 160.96 A33.8456
						 40.2977 -180 0 0 63.81 164.37 A33.8456 40.2977 -180 0 0 77.21 182.04 A41.5088 28.6746 -180 0 0 95.37 190
						 A41.5088 28.6746 -180 0 0 101.63 191 A41.5088 28.6746 -180 0 0 106.98 191.31 L111.79 191.31 L111.79 151.57
						 L124.57 151.57 L124.57 191.48 L127.76 191.48 L127.76 151.57 L140.57 151.57 L140.57 190.13 L140.57 192.2
						 L140.57 192.94 L148.64 201.01 A10.3234 10.3091 0 1 1 145.26 204.41 L135.78 194.92 L135.78 190.13 L135.78
						 156.37 L132.55 156.37 L132.55 196.31 L119.78 196.31 L119.78 156.37 L116.58 156.37 L116.58 196.28 L115.18
						 196.27 L107.53 196.27 A14.7147 4.51962 0 0 1 104.17 196.05 A46.7134 31.6773 0 0 1 74.47 185.96 A38.0894
						 44.5175 0 0 1 58.07 162.68 A38.0894 44.5175 0 0 1 55.86 146.48 L55.86 146.22 A9.05749 25.7123 0 0 1 56.27
						 138.2 A9.05749 25.7123 0 0 1 56.53 136.15 A9.05749 25.7123 0 0 1 58.51 127.64 A24.802 34.9911 0 0 1 64.15
						 116.36 L55.89 116.36 L55.89 103.66 L73.51 103.66 A27.9083 23.5244 0 0 1 75.35 103.79 A27.9083 23.5244 0
						 0 1 83.41 105.61 A27.9083 23.5244 0 0 1 98.19 118.53 A22.638 26.5508 0 0 1 99.95 124.45 A22.638 26.5508
						 0 0 1 96.53 145.16 A27.7086 26.5907 0 0 1 77.88 155.95 L78.04 156.72 A35.6243 27.6531 -180 0 0 78.11 156.92
						 A35.6243 27.6531 -180 0 0 78.91 158.84 A35.6539 29.5452 -180 0 0 83.56 157.75 A35.6539 29.5452 -180 0 0
						 84.27 157.53 A35.6539 29.5452 -180 0 0 91.95 154.16 A32.0206 31.0225 -180 0 0 94.74 151.9 A32.0206 31.0225
						 -180 0 0 96 150.69 A32.0206 31.0225 -180 0 0 97.13 149.49 L97.19 149.42 A32.0206 31.0225 -180 0 0 99.34
						 146.69 A32.0206 31.0225 -180 0 0 101.24 143.62 A21.2805 29.5452 -180 0 0 103.58 128.85 A31.3419 28.587 -180
						 0 0 103.42 124.83 A31.3419 28.587 -180 0 0 101.98 118.78 A31.3419 28.587 -180 0 0 100.96 116.38 A31.3419
						 28.587 -180 0 0 100.77 115.99 A31.3419 28.587 -180 0 0 100.35 115.18 A31.3419 28.587 -180 0 0 100.24 114.98
						 A31.3419 28.587 -180 0 0 99.32 113.43 A31.3419 28.587 -180 0 0 98.2 111.82 L98.14 111.74 A31.3419 28.587
						 -180 0 0 92.51 106.04 A35.6539 29.5452 -180 0 0 84.89 102.54 A35.6539 29.5452 -180 0 0 84.24 102.33 A35.6539
						 29.5452 -180 0 0 78.67 100.99 A35.6539 29.5452 -180 0 0 74.16 100.47 L68.92 100.47 L52.61 100.47 L52.61
						 196.21 L43.75 196.21 L39.83 196.23 L39.83 100.47 L36.64 100.47 L36.64 196.21 L23.83 196.21 L23.83 101.83
						 L23.83 99.75 L23.83 99.02 L15.76 90.94 A10.3234 10.3091 0 1 1 19.14 87.55 L28.62 97.03 L28.62 101.83 L28.62
						 191.42 L31.84 191.42 L31.84 95.65 L44.62 95.65 L44.62 191.42 L47.82 191.42 L47.82 95.68 L75.22 95.68 A34.9938
						 24.8447 0 0 1 77.13 95.85 A34.9938 24.8447 0 0 1 83.41 96.96 L83.57 97 A34.9938 24.8447 0 0 1 84.44 97.23
						 A34.9938 24.8447 0 0 1 88.46 98.65 ZM76.86 151.22 A72.5106 48.0159 0 0 1 76.72 150.38 A72.5106 48.0159 0
						 0 1 76.47 148.21 A18.0865 16.6446 -180 0 0 92.37 131.73 A18.5257 18.366 -180 0 0 92.19 126.71 A18.0865 16.6446
						 -180 0 0 75.8 111.61 A18.0865 16.6446 -180 0 0 75.12 111.57 L60.68 111.57 L60.68 108.45 L74.45 108.45 A24.9458
						 20.6178 0 0 1 91.72 117 A24.3149 23.8358 0 0 1 95.47 134.2 A24.3149 23.8358 0 0 1 91.69 143.5 A21.7756 22.5821
						 0 0 1 90.04 145.28 A21.7756 22.5821 0 0 1 76.86 151.25 L76.86 151.22 ZM76.86 151.25 L76.86 151.22 L76.86
						 151.25 ZM85.89 123.47 A60.8068 33.1207 -180 0 0 85.21 124.1 A60.8068 33.1207 -180 0 0 80.01 130.63 A60.8068
						 33.1207 -180 0 0 78.22 134.63 A60.8068 33.1207 -180 0 0 77.72 136.42 A72.5106 48.0159 -180 0 0 76.46 143.23
						 A13.3649 14.6129 -180 0 0 77.26 143.12 A13.3649 14.6129 -180 0 0 78.25 142.91 A13.3649 14.6129 -180 0 0
						 79.36 142.57 A13.3649 14.6129 -180 0 0 80.01 142.32 A13.3649 14.6129 -180 0 0 82.89 140.63 A13.3649 14.6129
						 -180 0 0 84.19 139.5 A13.3649 14.6129 -180 0 0 85.34 138.2 A13.3649 14.6129 -180 0 0 86.38 136.69 A11.4188
						 14.6129 -180 0 0 86.93 135.17 A11.4188 14.6129 -180 0 0 87.21 134.13 A11.4188 14.6129 -180 0 0 87.35 133.5
						 A11.4188 14.6129 -180 0 0 87.38 133.33 A11.4188 14.6129 -180 0 0 87.54 132.35 A11.4188 14.6129 -180 0 0
						 87.7 129.4 A7.64183 9.84575 -180 0 0 87.71 129.14 A7.64183 9.84575 -180 0 0 87.71 128.87 A12.8527 16.4478
						 -180 0 0 87.43 126.62 A11.4188 14.6129 -180 0 0 86.9 124.44 A7.64183 9.84575 -180 0 0 86.27 123.12 A60.8068
						 33.1207 -180 0 0 85.89 123.47 ZM74.58 167.96 A34.4449 36.9594 -180 0 0 74.91 168.44 A34.4449 36.9594 -180
						 0 0 75.23 168.91 A34.4449 36.9594 -180 0 0 75.47 169.25 L75.55 169.37 A31.2325 38.5386 -180 0 0 77.01 171.1
						 A31.2325 38.5386 -180 0 0 77.51 171.65 A31.2325 38.5386 -180 0 0 77.96 172.11 A31.2325 38.5386 -180 0 0
						 78.41 172.56 A31.2325 38.5386 -180 0 0 79.32 173.43 A31.2325 38.5386 -180 0 0 80.27 174.26 A31.2325 38.5386
						 -180 0 0 81.23 175.05 A31.2325 38.5386 -180 0 0 81.89 175.55 A31.2325 38.5386 -180 0 0 83.91 176.92 A31.2325
						 38.5386 -180 0 0 84.43 177.23 A31.2325 38.5386 -180 0 0 84.97 177.54 A31.2325 38.5386 -180 0 0 86.04 178.11
						 A31.2325 38.5386 -180 0 0 88.23 179.11 A42.1679 41.8983 -180 0 0 91.92 180.7 A42.1679 41.8983 -180 0 0 93.81
						 181.35 A42.1679 41.8983 -180 0 0 95.74 181.92 A42.1679 41.8983 -180 0 0 98.68 182.61 A42.1679 41.8983 -180
						 0 0 99.66 182.79 A42.1679 41.8983 -180 0 0 103.65 183.27 L103.65 180.04 A34.1899 30.1681 0 0 1 102.36 179.93
						 A34.1899 30.1681 0 0 1 101.08 179.77 A34.1899 30.1681 0 0 1 98.54 179.34 A34.1899 30.1681 0 0 1 93.32 177.86
						 A34.1899 30.1681 0 0 1 92.72 177.64 A34.1899 30.1681 0 0 1 92.4 177.51 A34.1899 30.1681 0 0 1 90.95 176.9
						 A34.1899 30.1681 0 0 1 89.1 176.02 A34.1899 30.1681 0 0 1 88.18 175.53 L88.09 175.48 A34.1899 30.1681 0
						 0 1 83.97 172.78 A34.1899 30.1681 0 0 1 80.93 170.16 A34.1899 30.1681 0 0 1 78.32 167.27 A34.1899 30.1681
						 0 0 1 76.04 163.97 A34.1899 30.1681 0 0 1 75.28 162.59 A34.1899 30.1681 0 0 1 75.11 162.26 A34.1899 30.1681
						 0 0 1 74.64 161.29 A34.1899 30.1681 0 0 1 74.16 160.18 L74.11 160.06 A34.1899 30.1681 0 0 1 73.96 159.68
						 A34.1899 30.1681 0 0 1 73.24 157.57 A34.1899 30.1681 0 0 1 73 156.69 A34.1899 30.1681 0 0 1 72.85 156.07
						 A34.1899 30.1681 0 0 1 72.75 155.64 A34.1899 30.1681 0 0 1 72.21 151.9 A69.591 52.3829 0 0 1 72.08 151.02
						 L72.07 150.96 A69.591 52.3829 0 0 1 72.04 150.69 A69.591 52.3829 0 0 1 71.96 150.02 A69.591 52.3829 0 0
						 1 71.81 148.13 A69.591 52.3829 0 0 1 71.75 144.72 A69.591 52.3829 0 0 1 72.32 139.05 A69.591 52.3829 0 0
						 1 73.04 135.75 A58.3585 36.133 0 0 1 73.2 134.98 A58.3585 36.133 0 0 1 73.45 134.03 A58.3585 36.133 0 0
						 1 73.65 133.33 A58.3585 36.133 0 0 1 74.26 131.62 A58.3585 36.133 0 0 1 75.23 129.44 A58.3585 36.133 0 0
						 1 80.22 122.31 A58.3585 36.133 0 0 1 80.57 121.94 A58.3585 36.133 0 0 1 80.92 121.57 A58.3585 36.133 0 0
						 1 81.28 121.21 A58.3585 36.133 0 0 1 81.64 120.85 A58.3585 36.133 0 0 1 82.58 119.95 A58.3585 36.133 0 0
						 1 83.11 119.48 A11.5626 9.23089 -180 0 0 80.16 117.69 A46.505 40.1815 -180 0 0 79.93 117.87 A46.505 40.1815
						 -180 0 0 79.64 118.11 A46.505 40.1815 -180 0 0 79.36 118.35 A46.505 40.1815 -180 0 0 79.07 118.59 A35.0687
						 40.1057 -180 0 0 74.94 123.54 A35.0687 40.1057 -180 0 0 73.8 125.26 A35.0687 40.1057 -180 0 0 73.26 126.14
						 A35.0687 40.1057 -180 0 0 72.75 127.04 A35.0687 40.1057 -180 0 0 72.14 128.28 A35.0687 40.1057 -180 0 0
						 71.55 129.59 A35.0687 40.1057 -180 0 0 71.18 130.46 A31.6698 38.0587 -180 0 0 70.6 132.16 A31.6698 38.0587
						 -180 0 0 70.06 134.01 A31.6698 38.0587 -180 0 0 69.99 134.26 A31.6698 38.0587 -180 0 0 69.28 137.45 A31.6698
						 38.0587 -180 0 0 68.83 140.35 A31.6698 38.0587 -180 0 0 68.54 147.46 A31.6698 38.0587 -180 0 0 68.76 150.5
						 A31.6698 38.0587 -180 0 0 69.42 154.82 A31.6698 38.0587 -180 0 0 69.49 155.16 A31.6698 38.0587 -180 0 0
						 70.54 159.14 A31.6698 38.0587 -180 0 0 70.62 159.41 A31.6698 38.0587 -180 0 0 70.82 160.03 A31.6698 38.0587
						 -180 0 0 71.14 160.95 A31.6698 38.0587 -180 0 0 71.86 162.8 A31.6698 38.0587 -180 0 0 73.11 165.5 A34.4449
						 36.9594 -180 0 0 73.39 166.01 A34.4449 36.9594 -180 0 0 73.53 166.26 A34.4449 36.9594 -180 0 0 73.68 166.51
						 A34.4449 36.9594 -180 0 0 73.97 166.99 A34.4449 36.9594 -180 0 0 74.3 167.52 A34.4449 36.9594 -180 0 0 74.58
						 167.96 L74.6 167.98 L74.58 167.96 ZM74.3 167.52 L74.28 167.49 L74.3 167.52 ZM73.97 166.99 L73.99 167.02
						 L73.97 166.99 ZM79.64 118.11 L79.64 118.11 L79.64 118.11 ZM72.13 128.3 L72.14 128.28 L72.13 128.3 ZM96 150.69
						 L96 150.69 L96 150.69 ZM98.11 104.5 A34.9938 24.8447 -180 0 0 94.9 102.05 A36.1729 16.4894 0 0 1 105.08
						 100.49 L135.59 100.49 L135.59 103.68 L106.13 103.68 A36.1729 16.4894 -180 0 0 101.65 104.03 A36.1729 16.4894
						 -180 0 0 98.11 104.5 ZM148.49 209.78 A5.58964 5.5819 -180 1 1 159.67 209.78 A5.58964 5.5819 -180 1 1 148.49
						 209.78 Z" class="st1"/>
			<path d="M15.91 82.18 A5.58964 5.5819 0 1 1 4.73 82.18 A5.58964 5.5819 0 1 1 15.91 82.18M88.46 98.65 A36.1729 16.6292
						 0 0 1 99.18 96.27 A36.1729 16.6292 0 0 1 105.47 95.69 L140.38 95.69 L140.38 108.47 L104.16 108.47 A36.1729
						 16.4894 -180 0 0 102 108.73 A34.9938 24.8447 0 0 1 103.78 111.58 L140.38 111.58 L140.38 116.38 L106.1 116.38
						 A27.9083 34.4561 0 0 1 108.09 125.03 A27.9083 34.4561 0 0 1 107.98 135.92 A27.9083 34.4561 0 0 1 105.08
						 146.34 A31.7811 34.4561 0 0 1 90.7 160.35 A31.7811 34.4561 0 0 1 83.79 162.74 A31.7811 34.4561 0 0 1 81.28
						 163.17 A29.3855 24.4746 -180 0 0 92.52 172.39 A29.3855 24.4746 -180 0 0 103.65 175.31 A29.3855 24.4746 -180
						 0 0 104.92 175.4 L108.44 175.4 L108.44 188.14 A46.4339 42.3215 0 0 1 103.65 187.98 A46.4339 42.3215 0 0
						 1 87.27 183.83 A34.3922 38.9278 0 0 1 75.48 176.29 A34.3922 38.9278 0 0 1 68.34 166.62 A31.6214 40.0857
						 0 0 1 64.04 151.22 A31.6214 40.0857 0 0 1 63.9 149.61 A31.6214 40.0857 0 0 1 63.76 145.23 A31.6214 40.0857
						 0 0 1 64.08 140.12 A31.6214 40.0857 0 0 1 65.78 131.7 A31.6214 40.0857 0 0 1 66.42 129.71 A35.0151 42.2417
						 0 0 1 67.22 127.75 A35.0151 42.2417 0 0 1 74.26 116.61 A35.0151 42.2417 0 0 1 74.48 116.36 L70.25 116.36
						 A20.7615 13.0455 -180 0 0 69.35 117.36 A20.7615 13.0455 -180 0 0 69.09 117.69 L68.99 117.81 A22.0387 31.6743
						 -180 0 0 66.04 122.15 A22.0387 31.6743 -180 0 0 63.46 127.95 A22.0387 31.6743 -180 0 0 63.04 129.24 A8.04835
						 23.2751 -180 0 0 62.16 132.24 A8.04835 23.2751 -180 0 0 61.92 133.27 A8.04835 23.2751 -180 0 0 60.74 142.77
						 A8.04835 23.2751 -180 0 0 60.68 146.3 A33.8456 40.2977 -180 0 0 60.67 147.46 A33.8456 40.2977 -180 0 0 60.68
						 148.58 A33.8456 40.2977 -180 0 0 60.87 151.79 A33.8456 40.2977 -180 0 0 61.15 154.18 A33.8456 40.2977 -180
						 0 0 61.19 154.45 A33.8456 40.2977 -180 0 0 61.39 155.71 A33.8456 40.2977 -180 0 0 61.6 156.79 A33.8456 40.2977
						 -180 0 0 61.82 157.82 A33.8456 40.2977 -180 0 0 62.17 159.28 A33.8456 40.2977 -180 0 0 62.64 160.96 A33.8456
						 40.2977 -180 0 0 63.81 164.37 A33.8456 40.2977 -180 0 0 77.21 182.04 A41.5088 28.6746 -180 0 0 95.37 190
						 A41.5088 28.6746 -180 0 0 101.63 191 A41.5088 28.6746 -180 0 0 106.98 191.31 L111.79 191.31 L111.79 151.57
						 L124.57 151.57 L124.57 191.48 L127.76 191.48 L127.76 151.57 L140.57 151.57 L140.57 190.13 L140.57 192.2
						 L140.57 192.94 L148.64 201.01 A10.3234 10.3091 0 1 1 145.26 204.41 L135.78 194.92 L135.78 190.13 L135.78
						 156.37 L132.55 156.37 L132.55 196.31 L119.78 196.31 L119.78 156.37 L116.58 156.37 L116.58 196.28 L115.18
						 196.27 L107.53 196.27 A14.7147 4.51962 0 0 1 104.17 196.05 A46.7134 31.6773 0 0 1 74.47 185.96 A38.0894
						 44.5175 0 0 1 58.07 162.68 A38.0894 44.5175 0 0 1 55.86 146.48 L55.86 146.22 A9.05749 25.7123 0 0 1 56.27
						 138.2 A9.05749 25.7123 0 0 1 56.53 136.15 A9.05749 25.7123 0 0 1 58.51 127.64 A24.802 34.9911 0 0 1 64.15
						 116.36 L55.89 116.36 L55.89 103.66 L73.51 103.66 A27.9083 23.5244 0 0 1 75.35 103.79 A27.9083 23.5244 0
						 0 1 83.41 105.61 A27.9083 23.5244 0 0 1 98.19 118.53 A22.638 26.5508 0 0 1 99.95 124.45 A22.638 26.5508
						 0 0 1 96.53 145.16 A27.7086 26.5907 0 0 1 77.88 155.95 L78.04 156.72 A35.6243 27.6531 -180 0 0 78.11 156.92
						 A35.6243 27.6531 -180 0 0 78.91 158.84 A35.6539 29.5452 -180 0 0 83.56 157.75 A35.6539 29.5452 -180 0 0
						 84.27 157.53 A35.6539 29.5452 -180 0 0 91.95 154.16 A32.0206 31.0225 -180 0 0 94.74 151.9 A32.0206 31.0225
						 -180 0 0 96 150.69 A32.0206 31.0225 -180 0 0 97.13 149.49 L97.19 149.42 A32.0206 31.0225 -180 0 0 99.34
						 146.69 A32.0206 31.0225 -180 0 0 101.24 143.62 A21.2805 29.5452 -180 0 0 103.58 128.85 A31.3419 28.587 -180
						 0 0 103.42 124.83 A31.3419 28.587 -180 0 0 101.98 118.78 A31.3419 28.587 -180 0 0 100.96 116.38 A31.3419
						 28.587 -180 0 0 100.77 115.99 A31.3419 28.587 -180 0 0 100.35 115.18 A31.3419 28.587 -180 0 0 100.24 114.98
						 A31.3419 28.587 -180 0 0 99.32 113.43 A31.3419 28.587 -180 0 0 98.2 111.82 L98.14 111.74 A31.3419 28.587
						 -180 0 0 92.51 106.04 A35.6539 29.5452 -180 0 0 84.89 102.54 A35.6539 29.5452 -180 0 0 84.24 102.33 A35.6539
						 29.5452 -180 0 0 78.67 100.99 A35.6539 29.5452 -180 0 0 74.16 100.47 L68.92 100.47 L52.61 100.47 L52.61
						 196.21 L43.75 196.21 L39.83 196.23 L39.83 100.47 L36.64 100.47 L36.64 196.21 L23.83 196.21 L23.83 101.83
						 L23.83 99.75 L23.83 99.02 L15.76 90.94 A10.3234 10.3091 0 1 1 19.14 87.55 L28.62 97.03 L28.62 101.83 L28.62
						 191.42 L31.84 191.42 L31.84 95.65 L44.62 95.65 L44.62 191.42 L47.82 191.42 L47.82 95.68 L75.22 95.68 A34.9938
						 24.8447 0 0 1 77.13 95.85 A34.9938 24.8447 0 0 1 83.41 96.96 L83.57 97 A34.9938 24.8447 0 0 1 84.44 97.23
						 A34.9938 24.8447 0 0 1 88.46 98.65M76.86 151.22 A72.5106 48.0159 0 0 1 76.72 150.38 A72.5106 48.0159 0 0
						 1 76.47 148.21 A18.0865 16.6446 -180 0 0 92.37 131.73 A18.5257 18.366 -180 0 0 92.19 126.71 A18.0865 16.6446
						 -180 0 0 75.8 111.61 A18.0865 16.6446 -180 0 0 75.12 111.57 L60.68 111.57 L60.68 108.45 L74.45 108.45 A24.9458
						 20.6178 0 0 1 91.72 117 A24.3149 23.8358 0 0 1 95.47 134.2 A24.3149 23.8358 0 0 1 91.69 143.5 A21.7756 22.5821
						 0 0 1 90.04 145.28 A21.7756 22.5821 0 0 1 76.86 151.25M76.86 151.25 L76.86 151.22M85.89 123.47 A60.8068
						 33.1207 -180 0 0 85.21 124.1 A60.8068 33.1207 -180 0 0 80.01 130.63 A60.8068 33.1207 -180 0 0 78.22 134.63
						 A60.8068 33.1207 -180 0 0 77.72 136.42 A72.5106 48.0159 -180 0 0 76.46 143.23 A13.3649 14.6129 -180 0 0
						 77.26 143.12 A13.3649 14.6129 -180 0 0 78.25 142.91 A13.3649 14.6129 -180 0 0 79.36 142.57 A13.3649 14.6129
						 -180 0 0 80.01 142.32 A13.3649 14.6129 -180 0 0 82.89 140.63 A13.3649 14.6129 -180 0 0 84.19 139.5 A13.3649
						 14.6129 -180 0 0 85.34 138.2 A13.3649 14.6129 -180 0 0 86.38 136.69 A11.4188 14.6129 -180 0 0 86.93 135.17
						 A11.4188 14.6129 -180 0 0 87.21 134.13 A11.4188 14.6129 -180 0 0 87.35 133.5 A11.4188 14.6129 -180 0 0 87.38
						 133.33 A11.4188 14.6129 -180 0 0 87.54 132.35 A11.4188 14.6129 -180 0 0 87.7 129.4 A7.64183 9.84575 -180
						 0 0 87.71 129.14 A7.64183 9.84575 -180 0 0 87.71 128.87 A12.8527 16.4478 -180 0 0 87.43 126.62 A11.4188
						 14.6129 -180 0 0 86.9 124.44 A7.64183 9.84575 -180 0 0 86.27 123.12 A60.8068 33.1207 -180 0 0 85.89 123.47M74.58
						 167.96 A34.4449 36.9594 -180 0 0 74.91 168.44 A34.4449 36.9594 -180 0 0 75.23 168.91 A34.4449 36.9594 -180
						 0 0 75.47 169.25 L75.55 169.37 A31.2325 38.5386 -180 0 0 77.01 171.1 A31.2325 38.5386 -180 0 0 77.51 171.65
						 A31.2325 38.5386 -180 0 0 77.96 172.11 A31.2325 38.5386 -180 0 0 78.41 172.56 A31.2325 38.5386 -180 0 0
						 79.32 173.43 A31.2325 38.5386 -180 0 0 80.27 174.26 A31.2325 38.5386 -180 0 0 81.23 175.05 A31.2325 38.5386
						 -180 0 0 81.89 175.55 A31.2325 38.5386 -180 0 0 83.91 176.92 A31.2325 38.5386 -180 0 0 84.43 177.23 A31.2325
						 38.5386 -180 0 0 84.97 177.54 A31.2325 38.5386 -180 0 0 86.04 178.11 A31.2325 38.5386 -180 0 0 88.23 179.11
						 A42.1679 41.8983 -180 0 0 91.92 180.7 A42.1679 41.8983 -180 0 0 93.81 181.35 A42.1679 41.8983 -180 0 0 95.74
						 181.92 A42.1679 41.8983 -180 0 0 98.68 182.61 A42.1679 41.8983 -180 0 0 99.66 182.79 A42.1679 41.8983 -180
						 0 0 103.65 183.27 L103.65 180.04 A34.1899 30.1681 0 0 1 102.36 179.93 A34.1899 30.1681 0 0 1 101.08 179.77
						 A34.1899 30.1681 0 0 1 98.54 179.34 A34.1899 30.1681 0 0 1 93.32 177.86 A34.1899 30.1681 0 0 1 92.72 177.64
						 A34.1899 30.1681 0 0 1 92.4 177.51 A34.1899 30.1681 0 0 1 90.95 176.9 A34.1899 30.1681 0 0 1 89.1 176.02
						 A34.1899 30.1681 0 0 1 88.18 175.53 L88.09 175.48 A34.1899 30.1681 0 0 1 83.97 172.78 A34.1899 30.1681 0
						 0 1 80.93 170.16 A34.1899 30.1681 0 0 1 78.32 167.27 A34.1899 30.1681 0 0 1 76.04 163.97 A34.1899 30.1681
						 0 0 1 75.28 162.59 A34.1899 30.1681 0 0 1 75.11 162.26 A34.1899 30.1681 0 0 1 74.64 161.29 A34.1899 30.1681
						 0 0 1 74.16 160.18 L74.11 160.06 A34.1899 30.1681 0 0 1 73.96 159.68 A34.1899 30.1681 0 0 1 73.24 157.57
						 A34.1899 30.1681 0 0 1 73 156.69 A34.1899 30.1681 0 0 1 72.85 156.07 A34.1899 30.1681 0 0 1 72.75 155.64
						 A34.1899 30.1681 0 0 1 72.21 151.9 A69.591 52.3829 0 0 1 72.08 151.02 L72.07 150.96 A69.591 52.3829 0 0
						 1 72.04 150.69 A69.591 52.3829 0 0 1 71.96 150.02 A69.591 52.3829 0 0 1 71.81 148.13 A69.591 52.3829 0 0
						 1 71.75 144.72 A69.591 52.3829 0 0 1 72.32 139.05 A69.591 52.3829 0 0 1 73.04 135.75 A58.3585 36.133 0 0
						 1 73.2 134.98 A58.3585 36.133 0 0 1 73.45 134.03 A58.3585 36.133 0 0 1 73.65 133.33 A58.3585 36.133 0 0
						 1 74.26 131.62 A58.3585 36.133 0 0 1 75.23 129.44 A58.3585 36.133 0 0 1 80.22 122.31 A58.3585 36.133 0 0
						 1 80.57 121.94 A58.3585 36.133 0 0 1 80.92 121.57 A58.3585 36.133 0 0 1 81.28 121.21 A58.3585 36.133 0 0
						 1 81.64 120.85 A58.3585 36.133 0 0 1 82.58 119.95 A58.3585 36.133 0 0 1 83.11 119.48 A11.5626 9.23089 -180
						 0 0 80.16 117.69 A46.505 40.1815 -180 0 0 79.93 117.87 A46.505 40.1815 -180 0 0 79.64 118.11 A46.505 40.1815
						 -180 0 0 79.36 118.35 A46.505 40.1815 -180 0 0 79.07 118.59 A35.0687 40.1057 -180 0 0 74.94 123.54 A35.0687
						 40.1057 -180 0 0 73.8 125.26 A35.0687 40.1057 -180 0 0 73.26 126.14 A35.0687 40.1057 -180 0 0 72.75 127.04
						 A35.0687 40.1057 -180 0 0 72.14 128.28 A35.0687 40.1057 -180 0 0 71.55 129.59 A35.0687 40.1057 -180 0 0
						 71.18 130.46 A31.6698 38.0587 -180 0 0 70.6 132.16 A31.6698 38.0587 -180 0 0 70.06 134.01 A31.6698 38.0587
						 -180 0 0 69.99 134.26 A31.6698 38.0587 -180 0 0 69.28 137.45 A31.6698 38.0587 -180 0 0 68.83 140.35 A31.6698
						 38.0587 -180 0 0 68.54 147.46 A31.6698 38.0587 -180 0 0 68.76 150.5 A31.6698 38.0587 -180 0 0 69.42 154.82
						 A31.6698 38.0587 -180 0 0 69.49 155.16 A31.6698 38.0587 -180 0 0 70.54 159.14 A31.6698 38.0587 -180 0 0
						 70.62 159.41 A31.6698 38.0587 -180 0 0 70.82 160.03 A31.6698 38.0587 -180 0 0 71.14 160.95 A31.6698 38.0587
						 -180 0 0 71.86 162.8 A31.6698 38.0587 -180 0 0 73.11 165.5 A34.4449 36.9594 -180 0 0 73.39 166.01 A34.4449
						 36.9594 -180 0 0 73.53 166.26 A34.4449 36.9594 -180 0 0 73.68 166.51 A34.4449 36.9594 -180 0 0 73.97 166.99
						 A34.4449 36.9594 -180 0 0 74.3 167.52 A34.4449 36.9594 -180 0 0 74.58 167.96 L74.6 167.98 L74.58 167.96M74.3
						 167.52 L74.28 167.49 L74.3 167.52M73.97 166.99 L73.99 167.02 L73.97 166.99M79.64 118.11 L79.64 118.11 L79.64
						 118.11M72.13 128.3 L72.14 128.28 L72.13 128.3M96 150.69 L96 150.69 L96 150.69M98.11 104.5 A34.9938 24.8447
						 -180 0 0 94.9 102.05 A36.1729 16.4894 0 0 1 105.08 100.49 L135.59 100.49 L135.59 103.68 L106.13 103.68 A36.1729
						 16.4894 -180 0 0 101.65 104.03 A36.1729 16.4894 -180 0 0 98.11 104.5M148.49 209.78 A5.58964 5.5819 -180
						 1 1 159.67 209.78 A5.58964 5.5819 -180 1 1 148.49 209.78" class="st2"/>
		</g>
		<g id="shape644-4" v:mID="644" v:groupContext="shape" transform="translate(21.0098,-0.942345)">
			<title>シート.644</title>
			<path d="M136.67 187.98 L133.44 187.98 L133.44 196.77 L127.24 196.77 L127.24 200.02 L133.44 200.02 L133.44 215 L124.92
						 215 L124.92 218.24 L144.73 218.24 L144.73 215 L136.76 215 L136.76 200.02 L143.43 200.02 L143.43 196.77 L136.76
						 196.77 L136.76 189.19 C137.6 188.54 137.6 188.17 136.67 187.98 ZM125.66 195.66 L126.68 194.92 L124.46 192.8
						 L123.9 193.35 L120.85 193.35 L120.85 187.98 C121.59 187.52 121.5 187.24 120.75 187.15 L117.98 187.15 L117.98
						 193.35 L112.61 193.35 L112.61 196.12 L122.15 196.12 C119.56 200.66 115.95 204.17 111.32 206.68 L112.61 209.54
						 C114.47 208.53 116.22 207.14 117.98 205.66 L117.98 219.91 L120.85 219.91 L120.85 205.66 C122.42 206.49 123.99
						 207.6 125.66 208.99 L127.24 205.75 C125.38 204.55 123.26 203.53 120.85 202.69 C122.88 200.19 124.46 197.89
						 125.66 195.66 ZM103.08 219.63 L106.14 217.78 C104.37 215.46 101.23 212.6 96.61 209.08 L94.02 210.83 C95.5
						 212.04 96.88 213.15 98.17 214.26 L86.34 215.19 L90.68 207.97 L106.23 207.97 L106.23 204.73 L76.62 204.73
						 L76.62 207.97 L87.07 207.97 L83 215.28 L77.08 215.65 L78.1 219.26 C78.47 219.53 78.93 219.45 79.39 218.89
						 L100.3 216.57 C101.42 217.59 102.34 218.61 103.08 219.63 ZM106.23 201.31 L107.71 197.79 C100.95 196.12 96.05
						 192.88 93 188.25 C93.64 187.79 93.55 187.52 92.81 187.43 L89.76 186.96 C86.52 193.07 81.52 197.05 74.77
						 198.81 L76.07 202.32 C78.38 201.67 80.78 200.38 83.46 198.53 L83.46 201.4 L99.75 201.4 L99.75 198.44 C102.43
						 199.92 104.66 200.94 106.23 201.31 ZM91.24 190.02 C93.37 193.72 96.14 196.41 99.47 198.25 L83.83 198.25
						 C86.61 196.22 89.11 193.53 91.24 190.02 ZM67.27 218.89 C68.66 218.89 69.58 218.15 69.87 216.48 L70.42 212.96
						 L67.27 211.58 L66.9 213.98 C66.81 214.63 66.62 214.9 66.26 214.9 C65.24 214.9 64.13 213.71 62.92 211.39
						 C61.35 208.62 60.42 203.9 59.96 197.14 L70.14 197.14 L70.14 193.9 L59.96 193.9 L59.96 188.44 C60.89 187.89
						 60.79 187.43 59.87 187.24 L56.64 187.24 L56.64 193.9 L39.05 193.9 L39.05 197.14 L56.81 197.14 C56.91 203.99
						 57.93 209.27 59.87 212.96 C61.9 216.95 64.32 218.89 67.27 218.89 ZM65.24 192.88 L67.83 190.76 C66.53 189.56
						 65.24 188.63 63.94 187.98 L61.44 190.21 C63.02 191.04 64.22 191.96 65.24 192.88 ZM57.28 213.98 L56.81 211.31
						 C53.95 211.85 51.36 212.32 49.13 212.6 L49.13 204.73 L54.78 204.73 L54.78 202.05 L40.44 202.05 L40.44 204.73
						 L46.27 204.73 L46.27 212.96 C43.95 213.43 41.55 213.71 39.15 213.89 L39.88 217.5 C40.34 218.15 40.72 218.05
						 40.9 217.22 C46.45 216.21 51.82 215.19 57.28 213.98 ZM32.85 216.3 L34.52 212.96 C29.7 210.1 26.46 207.14
						 24.71 204.09 L33.5 204.09 L33.5 200.85 L24.43 200.85 L24.43 196.41 L31.09 196.41 L31.09 193.17 L24.43 193.17
						 L24.43 187.52 C25.08 187.06 25.08 186.78 24.25 186.69 L21.56 186.69 L21.56 193.17 L18.78 193.17 L19.53 191.04
						 C20.26 190.85 20.35 190.57 19.8 190.3 L16.93 189.56 C15.82 193.26 14.44 196.03 12.67 197.79 L14.99 200.29
						 C16.11 199 16.93 197.7 17.49 196.41 L21.56 196.41 L21.56 200.85 L13.05 200.85 L13.05 204.09 L21.37 204.09
						 C18.97 208.06 15.73 211.58 11.56 214.44 L13.14 217.32 C16.75 214.9 19.53 212.04 21.56 208.53 L21.56 220.09
						 L24.43 220.09 L24.43 208.24 C26.28 210.93 29.05 213.61 32.85 216.3 ZM8.97 220.09 L8.97 204.64 C9.72 205.38
						 10.64 206.68 11.75 208.34 L13.88 205.66 C12.5 203.9 10.92 202.42 8.97 201.12 L8.97 196.96 L13.05 196.96
						 L13.05 193.82 L8.97 193.82 L8.97 187.52 C9.62 187.15 9.62 186.87 8.79 186.69 L6.11 186.69 L6.11 193.82 L1.11
						 193.82 L1.11 196.96 L5.92 196.96 C4.99 201.96 2.96 206.03 0 209.08 L1.85 212.13 C3.7 210.1 5.09 207.87 6.11
						 205.38 L6.11 220.09 L8.97 220.09 Z" class="st3"/>
		</g>
		<g id="shape645-6" v:mID="645" v:groupContext="shape" transform="translate(493.127,-28.1958)">
			<title>シート.645</title>
			<rect x="0" y="214.33" width="46.7029" height="5.75776" class="st3"/>
		</g>
		<g id="shape646-8" v:mID="646" v:groupContext="shape" transform="translate(181.929,-1.72081)">
			<title>シート.646</title>
			<path d="M57.85 165.46 C57.85 163.31 57.14 161.35 55.54 159.91 C54.11 158.49 52.14 157.58 49.99 157.58 C47.69 157.58
						 45.88 158.49 44.47 159.91 C42.85 161.35 42.14 163.31 42.14 165.46 C42.14 167.76 42.85 169.55 44.47 170.98
						 C45.88 172.58 47.69 173.31 49.99 173.31 C52.14 173.31 54.11 172.58 55.54 170.98 C57.14 169.55 57.85 167.76
						 57.85 165.46 ZM55 165.46 C55 167.06 54.47 168.13 53.58 169.02 C52.69 170.09 51.43 170.44 49.99 170.44 C48.58
						 170.44 47.32 170.09 46.43 169.02 C45.36 168.13 44.99 167.06 44.99 165.46 C44.99 164.02 45.36 162.76 46.43
						 161.87 C47.32 160.98 48.58 160.45 49.99 160.45 C51.43 160.45 52.69 160.98 53.58 161.87 C54.47 162.76 55
						 164.02 55 165.46 ZM10.35 220.09 C34.99 213.3 47.69 198.66 48.58 176.17 L41.25 170.8 L0 170.8 L0 176.88 L41.96
						 176.88 C40.72 196.34 28.57 208.67 5.35 214.01 L10.35 220.09 Z" class="st3"/>
		</g>
		<g id="shape647-10" v:mID="647" v:groupContext="shape" transform="translate(242.925,-0.942345)">
			<title>シート.647</title>
			<path d="M47.04 185.73 C48.58 185.04 48.75 184.2 47.73 183.35 L42.82 180.3 L40.44 181.15 L0 181.15 L0 187.08 L40.29 187.08
						 C38.08 201.13 28.6 210.43 11.32 214.85 L16.24 220.09 C34.01 214.85 44.33 203.33 47.04 185.73 ZM41.28 171.84
						 L41.28 166.1 L4.72 166.1 L4.72 171.84 L41.28 171.84 Z" class="st3"/>
		</g>
		<g id="shape648-12" v:mID="648" v:groupContext="shape" transform="translate(301.083,-2.63129)">
			<title>シート.648</title>
			<path d="M45.2 170.65 C47.9 170.15 48.6 169.48 47.06 168.29 L42.15 164.05 C32.51 178.27 18.46 189.11 0 196.88 L4.59 202.14
						 C12.88 198.25 19.98 194.02 26.24 189.28 L26.24 220.09 L32.34 220.09 L32.34 184.2 C37.58 179.63 41.99 175.06
						 45.2 170.65 Z" class="st3"/>
		</g>
		<g id="shape649-14" v:mID="649" v:groupContext="shape" transform="translate(353.715,-1.88314)">
			<title>シート.649</title>
			<path d="M42.77 192.39 L37.39 196.2 C39.47 198.61 42.42 202.26 46.23 207.27 L18.18 208.66 C23.89 196.2 28.56 183.56 32.03
						 170.74 C33.94 170.23 34.12 169.54 32.54 168.33 L26.32 166.25 C22.85 180.79 17.84 195.16 11.42 209.17 L0
						 209.53 L2.26 216.46 C2.77 218.36 3.47 218.36 4.67 216.46 L50.03 212.98 L54.35 220.09 L60.42 215.93 C54.71
						 206.94 48.82 199.14 42.77 192.39 Z" class="st3"/>
		</g>
		<g id="shape650-16" v:mID="650" v:groupContext="shape" transform="translate(424.581,-2.20209)">
			<title>シート.650</title>
			<path d="M56.37 171.66 L60.42 168.81 C57.54 165.41 54.68 162.36 51.63 159.48 L48.4 162.53 C50.96 164.91 53.66 167.94
						 56.37 171.66 ZM49.25 174.89 L52.65 172.01 C49.94 168.46 47.06 165.24 44.18 162.53 L40.78 165.41 C43.34 167.94
						 46.04 171.17 49.25 174.89 ZM20.98 167.27 C22.69 166.08 22.84 165.41 21.5 165.08 L14.89 163.55 C12.69 175.73
						 7.79 185.71 0 193.68 L5.41 196.56 C8.96 193.01 11.84 188.94 14.05 184.37 L34.18 184.37 C33.51 196.21 27.08
						 207.06 14.89 216.69 L20.98 220.09 C32.67 210.09 39.27 198.25 40.78 184.37 L56.2 184.37 L56.2 178.61 L16.93
						 178.61 C18.62 174.89 19.98 171.17 20.98 167.27 Z" class="st3"/>
		</g>
		<g id="shape651-18" v:mID="651" v:groupContext="shape" transform="translate(561.09,-8.52651E-14)">
			<title>シート.651</title>
			<path d="M31.88 200.32 L35.43 193.62 C25.73 188.97 16.22 185.23 6.72 182.63 L6.72 164.17 C8.39 162.86 8.01 162.12 5.79
						 161.93 L0 161.93 L0 220.09 L6.72 220.09 L6.72 189.9 C13.23 191.57 21.63 195.12 31.88 200.32 Z" class="st3"/>
		</g>
		<g id="shape669-20" v:mID="669" v:groupContext="shape" transform="translate(184.082,-117.357)">
			<title>シート.669</title>
			<path d="M396.85 219.06 L396.85 209.72 L374.38 209.72 L374.38 197.82 L395.31 197.82 L395.31 188.48 L374.38 188.48 L374.38
						 180.17 L396.85 180.17 L396.85 170.93 L361.96 170.93 L361.96 219.06 L396.85 219.06 ZM354.57 180.17 L354.57
						 170.93 L311.98 170.93 L311.98 180.17 L327.07 180.17 L327.07 219.06 L339.48 219.06 L339.48 180.17 L354.57
						 180.17 ZM290.63 200.49 L278.83 200.49 L284.68 183.24 L290.63 200.49 ZM309.82 219.06 L292.07 170.93 L277.7
						 170.93 L259.95 219.06 L272.47 219.06 L275.75 209.31 L293.61 209.31 L297 219.06 L309.82 219.06 ZM254.1 216.29
						 L254.1 192.58 L231.93 192.58 L231.93 201.61 L241.48 201.61 L241.48 211.06 L241.07 211.16 L238.81 211.16
						 L238.4 211.26 L233.27 210.75 L229.06 209.31 L225.88 206.95 L223.52 203.77 L222.08 199.66 L221.57 194.74
						 L221.67 192.28 L222.08 189.91 L222.8 187.86 L223.62 185.91 L224.75 184.27 L225.98 182.94 L227.52 181.7 L229.06
						 180.68 L230.8 179.96 L232.65 179.34 L234.7 179.04 L236.86 178.93 L238.71 179.04 L240.45 179.24 L242.09 179.65
						 L243.73 180.17 L245.17 180.78 L246.5 181.5 L247.63 182.12 L248.76 182.83 L249.89 183.65 L251.02 184.37 L251.84
						 184.99 L252.56 185.5 L254 185.5 L254 174.21 L250.51 172.67 L247.33 171.54 L244.35 170.83 L241.48 170.31
						 L238.4 170 L235.32 169.9 L229.37 170.42 L224.13 171.65 L219.51 173.8 L215.72 176.88 L211.82 181.91 L209.46
						 187.96 L208.64 194.94 L209.46 202.23 L211.72 208.39 L215.61 213.42 L219.41 216.29 L223.93 218.45 L229.06
						 219.68 L234.91 220.09 L238.4 219.98 L241.99 219.57 L245.58 218.86 L248.87 218.04 L251.74 217.21 L254.1 216.29
						 ZM201.66 219.06 L201.66 213.42 L176.31 213.42 L176.31 195.46 L201.66 195.46 L201.66 189.81 L176.31 189.81
						 L176.31 176.57 L201.66 176.57 L201.66 170.93 L169.84 170.93 L169.84 219.06 L201.66 219.06 ZM157.02 219.06
						 L157.02 170.93 L148.09 170.93 L135.67 197.71 L122.84 170.93 L114.02 170.93 L114.02 219.06 L120.07 219.06
						 L120.07 177.6 L133.31 205.82 L137.21 205.82 L150.55 177.6 L150.55 219.06 L157.02 219.06 ZM103.14 219.06
						 L103.14 214.14 L96.78 214.14 L96.78 175.75 L103.14 175.75 L103.14 170.93 L84.05 170.93 L84.05 175.75 L90.41
						 175.75 L90.41 214.14 L84.05 214.14 L84.05 219.06 L103.14 219.06 ZM64.96 184.48 L64.86 186.12 L64.55 187.66
						 L64.24 188.99 L63.63 190.02 L62.91 191.15 L62.09 192.07 L60.96 192.89 L59.63 193.61 L58.19 194.02 L56.65
						 194.33 L54.8 194.53 L46.39 194.53 L46.39 176.37 L53.98 176.37 L55.62 176.47 L57.16 176.57 L58.5 176.78 L59.73
						 177.09 L60.75 177.5 L61.78 178.11 L62.81 178.83 L63.63 179.75 L64.14 180.78 L64.55 181.91 L64.86 183.14
						 L64.96 184.48 ZM79.94 219.06 L61.78 198.02 L64.65 196.59 L67.01 194.84 L68.96 192.69 L70.5 190.22 L71.32
						 187.25 L71.63 183.96 L71.43 181.6 L70.91 179.45 L70.09 177.6 L69.07 176.06 L67.63 174.62 L66.09 173.49 L64.45
						 172.57 L62.7 171.95 L60.75 171.44 L58.7 171.13 L56.24 170.93 L40.02 170.93 L40.02 219.06 L46.39 219.06 L46.39
						 199.87 L55.42 199.87 L71.63 219.06 L79.94 219.06 ZM24.84 185.6 L24.84 186.94 L24.63 188.27 L24.22 189.5
						 L23.71 190.63 L22.99 191.66 L22.06 192.69 L20.94 193.61 L19.7 194.43 L18.16 194.94 L16.32 195.35 L14.26
						 195.56 L11.8 195.66 L6.47 195.66 L6.47 176.37 L12.73 176.37 L14.68 176.47 L16.32 176.57 L17.75 176.88 L19.09
						 177.19 L21.35 178.22 L22.47 179.14 L23.3 180.17 L24.01 181.29 L24.53 182.53 L24.73 184.07 L24.84 185.6 ZM31.51
						 185.4 L31.4 182.83 L30.89 180.47 L30.07 178.52 L28.94 176.78 L27.5 175.24 L25.76 173.9 L24.12 172.98 L22.37
						 172.16 L20.42 171.65 L18.27 171.24 L15.8 170.93 L0 170.93 L0 219.06 L6.47 219.06 L6.47 201.1 L12.83 201.1
						 L16.11 201 L18.99 200.59 L21.45 199.87 L23.6 198.95 L25.55 197.61 L27.3 196.18 L28.53 194.74 L29.56 193.1
						 L30.38 191.45 L31.1 189.5 L31.4 187.55 L31.51 185.4 Z" class="st4"/>
		</g>
	</g>
</svg>
